<svg width="131" height="22" viewBox="0 0 131 22" fill="none" xmlns="http://www.w3.org/2000/svg">
<path d="M0 13.6459C0 12.4908 0.22059 11.4035 0.665245 10.3822C1.10816 9.36089 1.71783 8.46984 2.49076 7.70559C3.2637 6.94307 4.16169 6.34383 5.18301 5.91134C6.20433 5.47884 7.29165 5.26172 8.44671 5.26172C9.62261 5.26172 10.7204 5.47884 11.7417 5.91134C12.763 6.34383 13.654 6.94307 14.4183 7.70559C15.1808 8.4681 15.7853 9.35568 16.2282 10.3666C16.6711 11.3775 16.8934 12.47 16.8934 13.6459C16.8934 14.801 16.6711 15.8848 16.2282 16.894C15.7835 17.9049 15.186 18.782 14.4339 19.5237C13.6801 20.2671 12.789 20.8542 11.7573 21.2867C10.7256 21.7192 9.62261 21.9363 8.44671 21.9363C7.29165 21.9363 6.19738 21.7192 5.16738 21.2867C4.13564 20.8542 3.23765 20.2601 2.47513 19.5081C1.71088 18.756 1.10816 17.8736 0.665245 16.8627C0.22059 15.8535 0 14.7801 0 13.6459ZM12.624 13.6459C12.624 13.0275 12.5163 12.4492 12.2992 11.9124C12.0821 11.3757 11.7834 10.9015 11.4012 10.4882C11.0191 10.0765 10.5762 9.74996 10.0707 9.51374C9.5653 9.27751 9.02337 9.15767 8.44671 9.15767C7.86831 9.15767 7.32812 9.27751 6.82268 9.51374C6.31723 9.7517 5.87431 10.0765 5.49219 10.4882C5.11006 10.9015 4.81131 11.3809 4.59419 11.9263C4.37707 12.4735 4.26938 13.0449 4.26938 13.6442C4.26938 14.2434 4.37707 14.8044 4.59419 15.3307C4.81131 15.857 5.11006 16.3208 5.49219 16.7238C5.87431 17.1267 6.31723 17.4463 6.82268 17.6825C7.32812 17.9205 7.87005 18.0386 8.44671 18.0386C9.02337 18.0386 9.5653 17.9257 10.0707 17.6982C10.5762 17.4724 11.0191 17.1562 11.4012 16.755C11.7834 16.352 12.0821 15.8831 12.2992 15.3464C12.5163 14.8114 12.624 14.2451 12.624 13.6459Z" fill="#CF3C27"/>
<path d="M28.8384 5.25977C29.7659 5.25977 30.6274 5.4352 31.4212 5.78606C32.215 6.13692 32.9011 6.6111 33.4795 7.20861C34.0579 7.80785 34.5112 8.51825 34.8412 9.34329C35.1713 10.1683 35.3363 11.0559 35.3363 12.0043V21.6269H31.0964V12.2509C31.0964 11.3651 30.7925 10.6373 30.1845 10.0693C29.5749 9.50136 28.8071 9.21823 27.8796 9.21823C27.3846 9.21823 26.926 9.30682 26.5022 9.48051C26.0784 9.65594 25.7137 9.89911 25.4027 10.2083C25.0936 10.5175 24.8504 10.884 24.675 11.306C24.4995 11.7298 24.4127 12.1884 24.4127 12.6834V21.6252H20.1433V5.53594H24.4127V7.20687C24.8869 6.58852 25.5122 6.10913 26.2851 5.76869C27.058 5.42998 27.9091 5.25977 28.8384 5.25977Z" fill="#CF3C27"/>
<path d="M52.7559 5.84822L55.8199 13.925L58.9446 5.57031H63.4937L57.3988 21.6595H54.1507L50.9009 12.9332L47.6216 21.6595H44.3422L38.2769 5.57031H42.8259L45.9819 13.925L48.9521 5.84822H52.7559Z" fill="#F5F5F5"/>
<path d="M65.4111 13.6459C65.4111 12.4908 65.6317 11.4035 66.0764 10.3822C66.5193 9.36089 67.129 8.46984 67.9019 7.70559C68.6748 6.94307 69.5728 6.34383 70.5941 5.91134C71.6155 5.47884 72.7028 5.26172 73.8578 5.26172C75.0337 5.26172 76.1315 5.47884 77.1528 5.91134C78.1741 6.34383 79.0652 6.94307 79.8294 7.70559C80.5919 8.4681 81.1964 9.35568 81.6393 10.3666C82.0822 11.3775 82.3046 12.47 82.3046 13.6459C82.3046 14.801 82.0822 15.8848 81.6393 16.894C81.1947 17.9049 80.5971 18.782 79.8451 19.5237C79.0912 20.2671 78.2002 20.8542 77.1684 21.2867C76.1367 21.7192 75.0337 21.9363 73.8578 21.9363C72.7028 21.9363 71.6085 21.7192 70.5785 21.2867C69.5468 20.8542 68.6488 20.2601 67.8863 19.5081C67.1237 18.756 66.5193 17.8736 66.0764 16.8627C65.6335 15.8535 65.4111 14.7801 65.4111 13.6459ZM78.0352 13.6459C78.0352 13.0275 77.9275 12.4492 77.7104 11.9124C77.4932 11.3757 77.1945 10.9015 76.8124 10.4882C76.4302 10.0765 75.9873 9.74996 75.4819 9.51374C74.9764 9.27751 74.4345 9.15767 73.8578 9.15767C73.2794 9.15767 72.7393 9.27751 72.2338 9.51374C71.7284 9.7517 71.2854 10.0765 70.9033 10.4882C70.5212 10.9015 70.2224 11.3809 70.0053 11.9263C69.7882 12.4735 69.6805 13.0449 69.6805 13.6442C69.6805 14.2434 69.7882 14.8044 70.0053 15.3307C70.2224 15.857 70.5212 16.3208 70.9033 16.7238C71.2854 17.1267 71.7284 17.4463 72.2338 17.6825C72.7393 17.9205 73.2812 18.0386 73.8578 18.0386C74.4345 18.0386 74.9764 17.9257 75.4819 17.6982C75.9873 17.4724 76.4302 17.1562 76.8124 16.755C77.1945 16.352 77.4932 15.8831 77.7104 15.3464C77.9275 14.8114 78.0352 14.2451 78.0352 13.6459Z" fill="#F5F5F5"/>
<path d="M89.7943 7.42568C90.5777 6.62148 91.5069 6.07435 92.5786 5.78602C93.6503 5.49768 94.7237 5.35352 95.7972 5.35352L94.4979 9.28246C93.0337 9.28246 91.8838 9.61769 91.0484 10.2881C90.2129 10.9586 89.7943 12.0668 89.7943 13.6144V21.6286H85.5544V5.5689H89.7943V7.42568Z" fill="#F5F5F5"/>
<path d="M105.048 5.2907C106.017 5.2907 106.905 5.46092 107.709 5.80136C108.513 6.1418 109.215 6.64203 109.813 7.30207V0H114.082V21.6283H109.813V19.8653C108.513 21.2479 106.934 21.9392 105.078 21.9392C104.004 21.9392 102.993 21.7117 102.045 21.2583C101.097 20.805 100.261 20.1901 99.5386 19.4172C98.816 18.6443 98.2446 17.7463 97.8208 16.7249C97.3969 15.7036 97.1868 14.6267 97.1868 13.4908C97.1868 12.3566 97.3917 11.2883 97.8051 10.2879C98.2168 9.28738 98.7795 8.41544 99.4917 7.67377C100.204 6.93037 101.039 6.34849 101.998 5.92468C102.959 5.5026 103.975 5.2907 105.048 5.2907ZM109.813 13.6141C109.813 12.9957 109.705 12.4121 109.488 11.8667C109.271 11.3196 108.977 10.8454 108.605 10.4424C108.234 10.0395 107.796 9.72509 107.291 9.49929C106.785 9.27175 106.233 9.15885 105.635 9.15885C105.036 9.15885 104.485 9.27175 103.98 9.49929C103.474 9.72683 103.037 10.0412 102.665 10.4424C102.293 10.8454 102 11.3144 101.783 11.8511C101.566 12.3878 101.458 12.9749 101.458 13.6141C101.458 14.2533 101.56 14.8421 101.767 15.3771C101.974 15.9138 102.262 16.3775 102.634 16.7701C103.005 17.1626 103.443 17.4718 103.949 17.6976C104.454 17.9252 105.006 18.0381 105.604 18.0381C106.201 18.0381 106.759 17.9252 107.275 17.6976C107.791 17.4718 108.234 17.1609 108.605 16.7701C108.977 16.3793 109.271 15.9086 109.488 15.3614C109.705 14.816 109.813 14.2342 109.813 13.6141Z" fill="#F5F5F5"/>
<path d="M120.055 16.7705C120.406 17.2655 120.927 17.6685 121.618 17.9776C122.31 18.2868 123.046 18.4414 123.831 18.4414C124.594 18.4414 125.24 18.292 125.764 17.9933C126.291 17.6945 126.553 17.3384 126.553 16.925C126.553 16.5533 126.331 16.239 125.888 15.9819C125.443 15.7248 124.898 15.4764 124.248 15.2385C123.598 15.0023 122.886 14.7487 122.113 14.4812C121.34 14.2137 120.628 13.8889 119.979 13.5068C119.329 13.1246 118.782 12.6557 118.339 12.0981C117.894 11.5406 117.674 10.851 117.674 10.0242C117.674 9.32249 117.839 8.67808 118.169 8.091C118.499 7.50392 118.952 6.99326 119.531 6.55902C120.107 6.12652 120.799 5.7913 121.604 5.55334C122.409 5.31712 123.275 5.19727 124.203 5.19727C125.73 5.19727 127.071 5.50644 128.226 6.12479C129.381 6.74314 130.175 7.5786 130.609 8.63118L127.917 10.2396C127.649 9.72372 127.204 9.32249 126.586 9.03242C125.968 8.74409 125.235 8.59992 124.389 8.59992C123.605 8.59992 122.97 8.72324 122.485 8.97163C122.001 9.21827 121.757 9.55002 121.757 9.96168C121.757 10.2517 121.978 10.5036 122.423 10.719C122.866 10.9361 123.428 11.1515 124.109 11.3686C124.79 11.5857 125.518 11.8271 126.291 12.0964C127.064 12.3656 127.791 12.706 128.472 13.1177C129.153 13.5311 129.714 14.0365 130.159 14.634C130.602 15.2333 130.824 15.9645 130.824 16.8313C130.824 17.5747 130.654 18.2607 130.313 18.8895C129.973 19.5183 129.499 20.0654 128.889 20.5292C128.281 20.9929 127.559 21.3542 126.723 21.613C125.888 21.8701 124.976 22.0004 123.984 22.0004C122.436 22.0004 121.05 21.6912 119.822 21.0728C118.594 20.4545 117.682 19.619 117.083 18.5664L120.055 16.7705Z" fill="#F5F5F5"/>
</svg>
